<svg id="visual" viewBox="0 0 900 600" width="900" height="600" xmlns="http://www.w3.org/2000/svg" xmlns:xlink="http://www.w3.org/1999/xlink" version="1.1"><rect x="0" y="0" width="900" height="600" fill="#140021"></rect><path d="M0 253L129 253L129 373L257 373L257 338L386 338L386 322L514 322L514 319L643 319L643 360L771 360L771 381L900 381L900 294L900 601L900 601L771 601L771 601L643 601L643 601L514 601L514 601L386 601L386 601L257 601L257 601L129 601L129 601L0 601Z" fill="#9900ff"></path><path d="M0 392L129 392L129 391L257 391L257 348L386 348L386 446L514 446L514 348L643 348L643 389L771 389L771 465L900 465L900 413L900 601L900 601L771 601L771 601L643 601L643 601L514 601L514 601L386 601L386 601L257 601L257 601L129 601L129 601L0 601Z" fill="#7700c6"></path><path d="M0 483L129 483L129 533L257 533L257 471L386 471L386 506L514 506L514 482L643 482L643 457L771 457L771 459L900 459L900 537L900 601L900 601L771 601L771 601L643 601L643 601L514 601L514 601L386 601L386 601L257 601L257 601L129 601L129 601L0 601Z" fill="#560090"></path></svg>