<svg id="visual" viewBox="0 0 900 600" width="900" height="600" xmlns="http://www.w3.org/2000/svg" xmlns:xlink="http://www.w3.org/1999/xlink" version="1.1"><rect x="0" y="0" width="900" height="600" fill="#001220"></rect><path d="M0 408L21.5 407.3C43 406.7 86 405.3 128.8 408C171.7 410.7 214.3 417.3 257.2 418C300 418.7 343 413.3 385.8 413.3C428.7 413.3 471.3 418.7 514.2 421.2C557 423.7 600 423.3 642.8 423C685.7 422.7 728.3 422.3 771.2 416.7C814 411 857 400 878.5 394.5L900 389L900 601L878.5 601C857 601 814 601 771.2 601C728.3 601 685.7 601 642.8 601C600 601 557 601 514.2 601C471.3 601 428.7 601 385.8 601C343 601 300 601 257.2 601C214.3 601 171.7 601 128.8 601C86 601 43 601 21.5 601L0 601Z" fill="#fa7268"></path><path d="M0 461L21.5 454.7C43 448.3 86 435.7 128.8 433.7C171.7 431.7 214.3 440.3 257.2 447.5C300 454.7 343 460.3 385.8 452.7C428.7 445 471.3 424 514.2 421.3C557 418.7 600 434.3 642.8 442.8C685.7 451.3 728.3 452.7 771.2 445.8C814 439 857 424 878.5 416.5L900 409L900 601L878.5 601C857 601 814 601 771.2 601C728.3 601 685.7 601 642.8 601C600 601 557 601 514.2 601C471.3 601 428.7 601 385.8 601C343 601 300 601 257.2 601C214.3 601 171.7 601 128.8 601C86 601 43 601 21.5 601L0 601Z" fill="#ef5f67"></path><path d="M0 464L21.5 468C43 472 86 480 128.8 476.8C171.7 473.7 214.3 459.3 257.2 459.5C300 459.7 343 474.3 385.8 481C428.7 487.7 471.3 486.3 514.2 478.3C557 470.3 600 455.7 642.8 453.7C685.7 451.7 728.3 462.3 771.2 468.3C814 474.3 857 475.7 878.5 476.3L900 477L900 601L878.5 601C857 601 814 601 771.2 601C728.3 601 685.7 601 642.8 601C600 601 557 601 514.2 601C471.3 601 428.7 601 385.8 601C343 601 300 601 257.2 601C214.3 601 171.7 601 128.8 601C86 601 43 601 21.5 601L0 601Z" fill="#e34c67"></path><path d="M0 540L21.5 535.5C43 531 86 522 128.8 518.7C171.7 515.3 214.3 517.7 257.2 522.3C300 527 343 534 385.8 537.7C428.7 541.3 471.3 541.7 514.2 537.2C557 532.7 600 523.3 642.8 521.7C685.7 520 728.3 526 771.2 521.3C814 516.7 857 501.3 878.5 493.7L900 486L900 601L878.5 601C857 601 814 601 771.2 601C728.3 601 685.7 601 642.8 601C600 601 557 601 514.2 601C471.3 601 428.7 601 385.8 601C343 601 300 601 257.2 601C214.3 601 171.7 601 128.8 601C86 601 43 601 21.5 601L0 601Z" fill="#d53867"></path><path d="M0 559L21.5 560.8C43 562.7 86 566.3 128.8 568.5C171.7 570.7 214.3 571.3 257.2 571.8C300 572.3 343 572.7 385.8 571.2C428.7 569.7 471.3 566.3 514.2 560.3C557 554.3 600 545.7 642.8 539.5C685.7 533.3 728.3 529.7 771.2 529C814 528.3 857 530.7 878.5 531.8L900 533L900 601L878.5 601C857 601 814 601 771.2 601C728.3 601 685.7 601 642.8 601C600 601 557 601 514.2 601C471.3 601 428.7 601 385.8 601C343 601 300 601 257.2 601C214.3 601 171.7 601 128.8 601C86 601 43 601 21.5 601L0 601Z" fill="#c62368"></path></svg>