<svg id="visual" viewBox="0 0 900 600" width="900" height="600" xmlns="http://www.w3.org/2000/svg" xmlns:xlink="http://www.w3.org/1999/xlink" version="1.1"><rect width="900" height="600" fill="#931F1F"></rect><g><g transform="translate(447 86)"><path d="M91.8 -29.3C105.1 11.1 92.4 60.4 61.9 81.8C31.4 103.1 -16.9 96.4 -50.5 71.5C-84.2 46.6 -103.2 3.5 -92.3 -33.6C-81.4 -70.6 -40.7 -101.6 -0.7 -101.4C39.3 -101.1 78.5 -69.7 91.8 -29.3Z" stroke="#F7760E" fill="none" stroke-width="20"></path></g><g transform="translate(5 358)"><path d="M71.2 -23.2C80.9 6.8 69.6 43.5 44.3 62.1C19.1 80.7 -20.2 81.2 -45.7 62.7C-71.2 44.2 -82.9 6.7 -73 -23.5C-63.1 -53.6 -31.6 -76.5 -0.4 -76.4C30.7 -76.2 61.5 -53.1 71.2 -23.2Z" stroke="#F7760E" fill="none" stroke-width="20"></path></g><g transform="translate(307 502)"><path d="M53.8 -16.4C60.6 3.6 50.9 30.1 32.8 42.7C14.7 55.3 -11.7 53.9 -29.5 40.9C-47.2 27.9 -56.3 3.4 -49.9 -16C-43.6 -35.3 -21.8 -49.3 0.8 -49.6C23.5 -49.8 46.9 -36.4 53.8 -16.4Z" stroke="#F7760E" fill="none" stroke-width="20"></path></g></g></svg>