<svg id="visual" viewBox="0 0 900 600" width="900" height="600" xmlns="http://www.w3.org/2000/svg" xmlns:xlink="http://www.w3.org/1999/xlink" version="1.1"><rect x="0" y="0" width="900" height="600" fill="#001220"></rect><defs><linearGradient id="grad1_0" x1="33.3%" y1="0%" x2="100%" y2="100%"><stop offset="20%" stop-color="#001220" stop-opacity="1"></stop><stop offset="80%" stop-color="#001220" stop-opacity="1"></stop></linearGradient></defs><defs><linearGradient id="grad2_0" x1="0%" y1="0%" x2="66.7%" y2="100%"><stop offset="20%" stop-color="#001220" stop-opacity="1"></stop><stop offset="80%" stop-color="#001220" stop-opacity="1"></stop></linearGradient></defs><g transform="translate(900, 0)"><path d="M0 486.7C-52.7 457.7 -105.4 428.7 -170.3 411.1C-235.1 393.5 -312.1 387.4 -344.2 344.2C-376.3 301 -363.4 220.8 -379.7 157.3C-396 93.8 -441.4 46.9 -486.7 0L0 0Z" fill="#FBAE3C"></path></g><g transform="translate(0, 600)"><path d="M0 -486.7C42.7 -431.4 85.4 -376.1 149.6 -361.2C213.9 -346.4 299.8 -371.9 344.2 -344.2C388.6 -316.4 391.5 -235.4 408.4 -169.1C425.2 -102.9 456 -51.4 486.7 0L0 0Z" fill="#FBAE3C"></path></g></svg>