<svg id="visual" viewBox="0 0 900 600" width="900" height="600" xmlns="http://www.w3.org/2000/svg" xmlns:xlink="http://www.w3.org/1999/xlink" version="1.1"><path d="M0 55L82 55L82 127L164 127L164 67L245 67L245 85L327 85L327 109L409 109L409 61L491 61L491 61L573 61L573 121L655 121L655 43L736 43L736 43L818 43L818 73L900 73L900 103L900 0L900 0L818 0L818 0L736 0L736 0L655 0L655 0L573 0L573 0L491 0L491 0L409 0L409 0L327 0L327 0L245 0L245 0L164 0L164 0L82 0L82 0L0 0Z" fill="#fa7268"></path><path d="M0 97L82 97L82 175L164 175L164 121L245 121L245 181L327 181L327 205L409 205L409 109L491 109L491 121L573 121L573 187L655 187L655 103L736 103L736 133L818 133L818 157L900 157L900 151L900 101L900 71L818 71L818 41L736 41L736 41L655 41L655 119L573 119L573 59L491 59L491 59L409 59L409 107L327 107L327 83L245 83L245 65L164 65L164 125L82 125L82 53L0 53Z" fill="#ea5e66"></path><path d="M0 349L82 349L82 289L164 289L164 283L245 283L245 319L327 319L327 331L409 331L409 361L491 361L491 229L573 229L573 283L655 283L655 301L736 301L736 229L818 229L818 409L900 409L900 265L900 149L900 155L818 155L818 131L736 131L736 101L655 101L655 185L573 185L573 119L491 119L491 107L409 107L409 203L327 203L327 179L245 179L245 119L164 119L164 173L82 173L82 95L0 95Z" fill="#d84a64"></path><path d="M0 487L82 487L82 409L164 409L164 421L245 421L245 397L327 397L327 379L409 379L409 523L491 523L491 355L573 355L573 337L655 337L655 451L736 451L736 373L818 373L818 517L900 517L900 421L900 263L900 407L818 407L818 227L736 227L736 299L655 299L655 281L573 281L573 227L491 227L491 359L409 359L409 329L327 329L327 317L245 317L245 281L164 281L164 287L82 287L82 347L0 347Z" fill="#c53762"></path><path d="M0 601L82 601L82 601L164 601L164 601L245 601L245 601L327 601L327 601L409 601L409 601L491 601L491 601L573 601L573 601L655 601L655 601L736 601L736 601L818 601L818 601L900 601L900 601L900 419L900 515L818 515L818 371L736 371L736 449L655 449L655 335L573 335L573 353L491 353L491 521L409 521L409 377L327 377L327 395L245 395L245 419L164 419L164 407L82 407L82 485L0 485Z" fill="#b0235f"></path></svg>