<svg id="visual" viewBox="0 0 900 600" width="900" height="600" xmlns="http://www.w3.org/2000/svg" xmlns:xlink="http://www.w3.org/1999/xlink" version="1.1"><path d="M0 91L82 49L164 67L245 79L327 67L409 97L491 43L573 109L655 115L736 85L818 61L900 109L900 0L818 0L736 0L655 0L573 0L491 0L409 0L327 0L245 0L164 0L82 0L0 0Z" fill="#00cc8e"></path><path d="M0 151L82 169L164 151L245 199L327 193L409 211L491 109L573 217L655 217L736 223L818 169L900 199L900 107L818 59L736 83L655 113L573 107L491 41L409 95L327 65L245 77L164 65L82 47L0 89Z" fill="#00b98a"></path><path d="M0 355L82 259L164 319L245 295L327 361L409 415L491 361L573 325L655 385L736 349L818 265L900 301L900 197L818 167L736 221L655 215L573 215L491 107L409 209L327 191L245 197L164 149L82 167L0 149Z" fill="#00a784"></path><path d="M0 403L82 355L164 361L245 379L327 415L409 475L491 421L573 421L655 445L736 391L818 355L900 397L900 299L818 263L736 347L655 383L573 323L491 359L409 413L327 359L245 293L164 317L82 257L0 353Z" fill="#00957c"></path><path d="M0 601L82 601L164 601L245 601L327 601L409 601L491 601L573 601L655 601L736 601L818 601L900 601L900 395L818 353L736 389L655 443L573 419L491 419L409 473L327 413L245 377L164 359L82 353L0 401Z" fill="#038373"></path></svg>